# Blender v2.90.1 OBJ File: ''
# www.blender.org
mtllib roddyrich.mtl
o Cube_Cube.004
v -1.000000 -1.000000 1.000000
v -1.000000 1.000000 1.000000
v -1.000000 -1.000000 -1.000000
v -1.000000 1.000000 -1.000000
v 1.000000 -1.000000 1.000000
v 1.000000 1.000000 1.000000
v 1.000000 -1.000000 -1.000000
v 1.000000 1.000000 -1.000000
v -0.500000 1.000000 -0.500000
v -0.500000 -1.000000 -0.500000
v 0.500000 1.000000 -0.500000
v 0.500000 -1.000000 -0.500000
v 0.500000 1.000000 0.500000
v 0.500000 -1.000000 0.500000
v -0.500000 1.000000 0.500000
v -0.500000 -1.000000 0.500000
v 1.000000 -0.500000 0.500000
v -0.500000 -0.500000 0.500000
v -1.000000 -0.500000 0.500000
v 1.000000 0.500000 0.500000
v -0.500000 0.500000 0.500000
v -1.000000 0.500000 0.500000
v 1.000000 0.500000 -0.500000
v 0.500000 0.500000 -0.500000
v -0.495201 0.497430 -0.499429
v -1.000000 0.500000 -0.500000
v 1.000000 -0.500000 -0.500000
v -1.000000 -0.500000 -0.500000
v 0.500000 -0.500000 -1.000000
v 0.500000 -0.500000 1.000000
v 0.500000 0.500000 -1.000000
v 0.500000 0.500000 1.000000
v -0.500000 0.500000 -1.000000
v -0.500000 0.500000 1.000000
v -0.500000 0.500000 0.500000
v -0.500000 -0.500000 -1.000000
v -0.500000 -0.500000 1.000000
v -0.500000 -0.500000 -0.500000
v 0.500000 -0.500000 0.499439
v 0.500000 -0.500000 -0.500000
v 0.500264 0.500000 0.500000
vt 0.000000 0.000000
vt 0.000000 0.000000
vt 0.000000 0.000000
vt 0.000000 0.000000
vt 0.000000 0.000000
vt 0.000000 0.000000
vt 0.000000 0.000000
vt 0.000000 0.000000
vt 0.812500 0.562500
vt 0.812500 0.687500
vt 0.000000 0.000000
vt 0.000000 0.000000
vt 0.687500 0.562500
vt 0.000000 0.000000
vt 0.000000 0.000000
vt 0.000000 0.000000
vt 0.000000 0.000000
vt 0.000000 0.000000
vt 0.000000 0.000000
vt 0.000000 0.000000
vt 0.000000 0.000000
vt 0.000000 0.000000
vt 0.000000 0.000000
vt 0.000000 0.000000
vt 0.000000 0.000000
vt 0.000000 0.000000
vt 0.000000 0.000000
vt 0.000000 0.000000
vt 0.000000 0.000000
vt 0.000000 0.000000
vt 0.000000 0.000000
vt 0.000000 0.000000
vt 0.000000 0.000000
vt 0.000000 0.000000
vt 0.000000 0.000000
vt 0.000000 0.000000
vt 0.000000 0.000000
vt 0.000000 0.000000
vt 0.000000 0.000000
vt 0.000000 0.000000
vt 0.000000 0.000000
vt 0.000000 0.000000
vt 0.000000 0.000000
vn -0.0026 -1.0000 0.0013
vn 1.0000 0.0000 0.0000
vn 1.0000 0.0048 0.0024
vn 0.0003 0.0006 1.0000
vn 0.0000 1.0000 0.0000
vn 0.0000 0.0000 -1.0000
vn 0.0006 0.0003 -1.0000
vn 0.0013 -1.0000 -0.0026
vn 0.0000 -1.0000 0.0000
vn -1.0000 0.0000 0.0000
vn -0.0003 -0.0006 -1.0000
vn 0.0000 0.0000 1.0000
vn 1.0000 -0.0001 0.0003
vn 0.5786 0.0003 -0.8156
vn -1.0000 -0.0003 0.0001
vn 1.0000 -0.0024 -0.0048
usemtl None
s off
f 26/1/1 25/2/1 21/3/1 22/4/1
f 10/5/2 38/6/2 18/7/2 16/8/2
f 25/2/3 9/9/3 15/10/3 21/3/3 35/11/3
f 24/12/4 11/13/4 9/9/4 25/2/4
f 18/7/5 38/6/5 28/14/5 19/15/5
f 19/15/6 22/4/6 21/3/6 35/11/6 18/7/6
f 28/14/7 26/1/7 25/2/7 38/6/7
f 33/16/8 31/17/8 24/12/8 25/2/8
f 37/18/9 18/7/9 39/19/9 30/20/9
f 34/21/10 35/11/10 18/7/10 37/18/10
f 14/22/11 16/8/11 18/7/11 39/19/11
f 29/23/9 40/24/9 38/6/9 36/25/9
f 29/23/10 40/24/10 24/12/10 31/17/10
f 40/24/5 39/19/5 17/26/5 27/27/5
f 12/28/12 40/24/12 38/6/12 10/5/12
f 14/22/10 39/19/10 40/24/10 12/28/10
f 20/29/7 17/26/7 39/19/7 41/30/7
f 34/21/5 32/31/5 41/30/5 35/11/5
f 41/30/13 32/31/13 30/20/13 39/19/13
f 39/19/14 13/32/14 41/30/14
f 27/27/12 23/33/12 24/12/12 40/24/12
f 20/29/9 41/30/9 24/12/9 23/33/9
f 15/34/12 35/11/12 41/30/12 13/32/12
f 13/32/15 11/35/15 24/12/15 41/30/15
f 36/25/16 33/16/16 25/2/16 38/6/16
f 3/36/9 7/37/9 12/28/9 10/5/9 16/8/9 1/38/9
f 7/37/9 5/39/9 1/38/9 16/8/9 14/22/9 12/28/9
f 3/36/6 36/25/6 29/23/6 31/17/6 8/40/6 7/37/6
f 4/41/6 8/40/6 31/17/6 33/16/6 36/25/6 3/36/6
f 1/38/10 2/42/10 4/41/10 26/1/10 22/4/10 19/15/10
f 1/38/10 19/15/10 28/14/10 26/1/10 4/41/10 3/36/10
f 8/40/2 23/33/2 27/27/2 17/26/2 5/39/2 7/37/2
f 6/43/2 5/39/2 17/26/2 20/29/2 23/33/2 8/40/2
f 5/39/12 6/43/12 2/42/12 34/21/12 32/31/12 30/20/12
f 2/42/12 1/38/12 5/39/12 30/20/12 37/18/12 34/21/12
f 8/40/5 11/35/5 13/32/5 15/34/5 2/42/5 6/43/5
f 4/41/5 2/42/5 15/10/5 9/9/5 11/35/5 8/40/5
l 27 38
l 17 18
